inDegrees=yes
name=ik_S40_A06_T01
DataType=double
version=3
OpenSimVersion=4.3-2021-08-27-4bc7ad9
endheader
time	pelvis_tilt	pelvis_list	pelvis_rotation	pelvis_tx	pelvis_ty	pelvis_tz	hip_flexion_r	hip_adduction_r	hip_rotation_r	knee_angle_r	knee_angle_r_beta	ankle_angle_r	subtalar_angle_r	mtp_angle_r	hip_flexion_l	hip_adduction_l	hip_rotation_l	knee_angle_l	knee_angle_l_beta	ankle_angle_l	subtalar_angle_l	mtp_angle_l	lumbar_extension	lumbar_bending	lumbar_rotation	arm_flex_r	arm_add_r	arm_rot_r	elbow_flex_r	pro_sup_r	wrist_flex_r	wrist_dev_r	arm_flex_l	arm_add_l	arm_rot_l	elbow_flex_l	pro_sup_l	wrist_flex_l	wrist_dev_l
0	0	0	0	0	0.9399999999999999	0	0	0	0	0	0	0	0	0	0	0	0	0	0	0	0	0	0	0	0	0	0	0	0	89.99999999963507	0	0	0	0	0	0	89.99999999869995	0	0
0.02	-8.613649896487566	-3.140103067781059	31.39887526802362	0	0.9399999999999999	0	2.497711703294644	-1.186522445308628	-0.8412190985002251	3.864930633488661	0.06745576491556735	0	0	0	2.497711703294644	-1.186522445308628	-0.8412190985002251	3.864930633488661	0.06745576491556735	0	0	0	-4.392206795214037	-3.08260352228772	10.73516674390453	15.62007372944675	-6.072371979548539	2.894486570616043	57.20083986825014	155.339642691202	0	0	21.16746119354937	-4.047410219309357	1.18113130977624	50.44822058884608	139.8785287698009	0	0
0.04	-8.598065679106538	-3.138377122875271	31.41143518326687	0	0.9399999999999999	0	2.505295655994725	-1.190422783326281	-0.8437966763616457	3.875734825138437	0.06764433363287242	0	0	0	2.505295655994725	-1.190422783326281	-0.8437966763616457	3.875734825138437	0.06764433363287242	0	0	0	-4.378017039926156	-3.089443311545115	10.73799616263637	15.7397518709878	-6.025815146704779	2.87545052166222	57.13444665192351	155.3713830047959	0	0	21.17460158522618	-4.016261365670384	1.19724190978919	50.39938927624457	139.8694121118566	0	0
0.06	-8.579200336233296	-3.132072189320484	31.4304918646951	0	0.9399999999999999	0	2.705339848808564	-1.297863920956291	-0.9124826157601871	4.166200307066068	0.07271391265590167	0	0	0	2.705339848808564	-1.297863920956291	-0.9124826157601871	4.166200307066068	0.07271391265590167	0	0	0	-4.367111088477798	-3.085996543053067	10.73902552029409	15.79572611178785	-6.012915357983027	2.85413404885544	56.99144334540584	155.3148645093209	0	0	21.21696226791791	-3.997466238021105	1.233903685666328	50.31690622909553	139.7814546277029	0	0
0.08	-8.564334772712256	-3.133760003643594	31.43616436423399	0	0.9399999999999999	0	2.871910536129414	-1.388525066224401	-0.970542764286218	4.401106254838204	0.07681379487704328	0	0	0	2.871910536129414	-1.388525066224401	-0.970542764286218	4.401106254838204	0.07681379487704328	0	0	0	-4.362486487046804	-3.088593880406701	10.73920930697918	15.81395447703982	-6.021161289984484	2.834034826380723	56.984784965007	155.3229842492115	0	0	21.25482664578326	-3.974458190552732	1.271261130879343	50.34109275087927	139.8366471400611	0	0
0.1	-8.552319471214942	-3.137195139995628	31.45326104345639	0	0.9399999999999999	0	2.977743394642174	-1.445874578149993	-1.007646082209252	4.546673312865648	0.07935441932206382	0	0	0	2.977743394642174	-1.445874578149993	-1.007646082209252	4.546673312865648	0.07935441932206382	0	0	0	-4.358041228656692	-3.094771825989433	10.75062603155376	15.8232633791476	-6.003898772563203	2.822027279866564	56.96621460069001	155.2961920760033	0	0	21.28991491611408	-3.976853664706882	1.353094776454274	50.33163743502973	139.88350736392	0	0
0.12	-8.321442615803488	-3.179727789627151	31.81980912213624	0	0.9399999999999999	0	9.805982029373489	-4.490298897372743	-3.269899759758442	12.77816331564638	0.2230210222155848	0	0	0	9.805982029373489	-4.490298897372743	-3.269899759758442	12.77816331564638	0.2230210222155848	0	0	0	-4.536690810103655	-2.926760734698259	10.41528609609608	15.78521460459134	-5.968848757742386	2.770294038648272	56.96950184678003	155.3656819470165	0	0	21.32849374237928	-4.034657063153882	1.396337444045473	50.26566820234745	139.9009232744559	0	0
0.14	-8.303591350441421	-3.172525807283417	31.85338867643309	0	0.9399999999999999	0	10.00649878176103	-4.555203718377314	-3.335692106107347	12.94204593334167	0.2258813134811548	0	0	0	10.00649878176103	-4.555203718377314	-3.335692106107347	12.94204593334167	0.2258813134811548	0	0	0	-4.536011161824589	-2.913380476160817	10.40922275380757	15.76371703273788	-5.970742327682697	2.728106156063705	56.96065405616002	155.3951253173245	0	0	21.28503458534835	-4.065824003435234	1.522006649017917	50.29908228902519	139.8345572175182	0	0
0.16	-8.286665056975473	-3.173545395547462	31.87409799129043	0	0.9399999999999999	0	10.21779780380665	-4.625856415755488	-3.405132913170634	13.12114580606134	0.2290071959500157	0	0	0	10.21779780380665	-4.625856415755488	-3.405132913170634	13.12114580606134	0.2290071959500157	0	0	0	-4.54076885318066	-2.905348418859865	10.39238518785655	15.78713741383063	-5.96210883840886	2.709079436690818	56.91689388401934	155.3662127907251	0	0	21.24373742957149	-4.082218342101142	1.621177036946184	50.29863613079229	139.7642480619952	0	0
0.18	-8.252258263656254	-3.170831935069337	31.94131130831777	0	0.9399999999999999	0	10.84891866147813	-4.840737470608452	-3.604777009111718	13.75011176095647	0.2399847227458859	0	0	0	10.84891866147813	-4.840737470608452	-3.604777009111718	13.75011176095647	0.2399847227458859	0	0	0	-4.555361384638979	-2.875848392475803	10.34538429726103	15.81292647483323	-5.953204777855698	2.672207361937442	56.82684892907968	155.3385394291835	0	0	21.21018215524933	-4.075314971894261	1.662424638480086	50.27525194596068	139.7592031444097	0	0
